<mxfile host="app.diagrams.net" agent="Mozilla/5.0 (Windows NT 10.0; Win64; x64) AppleWebKit/537.36 (KHTML, like Gecko) Chrome/141.0.0.0 Safari/537.36" version="28.2.7">
  <diagram name="Page-1" id="dSxOkD4vzVmU74LxcRfJ">
    <mxGraphModel dx="1302" dy="248" grid="1" gridSize="10" guides="1" tooltips="1" connect="1" arrows="1" fold="1" page="1" pageScale="1" pageWidth="827" pageHeight="1169" math="0" shadow="0">
      <root>
        <mxCell id="0" />
        <mxCell id="1" parent="0" />
        <mxCell id="O64tXoXJISWcE4XOfCBd-11" value="" style="rounded=1;whiteSpace=wrap;html=1;dashed=1;dashPattern=12 12;strokeColor=light-dark(#000000,#00FF00);fillColor=none;" parent="1" vertex="1">
          <mxGeometry x="360" y="220" width="280" height="100" as="geometry" />
        </mxCell>
        <mxCell id="josdxdwWZOVGao6WTSf_-9" value="" style="rounded=1;whiteSpace=wrap;html=1;dashed=1;dashPattern=12 12;strokeColor=light-dark(#000000,#16D8FF);fillColor=none;" vertex="1" parent="1">
          <mxGeometry x="-70" y="290" width="570" height="110" as="geometry" />
        </mxCell>
        <mxCell id="O64tXoXJISWcE4XOfCBd-4" value="" style="rounded=1;whiteSpace=wrap;html=1;dashed=1;dashPattern=12 12;strokeColor=light-dark(#000000,#CC0000);fillColor=none;" parent="1" vertex="1">
          <mxGeometry x="170" y="170" width="630" height="90" as="geometry" />
        </mxCell>
        <mxCell id="z0r5uAFNtkcqJ_WD6JSB-1" value="App &amp;lt;div id=&quot;app&amp;gt;&quot;" style="rounded=0;whiteSpace=wrap;html=1;strokeColor=light-dark(#000000,#CC0000);" parent="1" vertex="1">
          <mxGeometry x="320" y="160" width="120" height="30" as="geometry" />
        </mxCell>
        <mxCell id="z0r5uAFNtkcqJ_WD6JSB-35" value="" style="endArrow=none;html=1;rounded=0;entryX=0.5;entryY=1;entryDx=0;entryDy=0;exitX=0.5;exitY=0;exitDx=0;exitDy=0;" parent="1" target="z0r5uAFNtkcqJ_WD6JSB-1" edge="1">
          <mxGeometry width="50" height="50" relative="1" as="geometry">
            <mxPoint x="500" y="210" as="sourcePoint" />
            <mxPoint x="590" y="220" as="targetPoint" />
            <Array as="points">
              <mxPoint x="500" y="200" />
              <mxPoint x="380" y="200" />
            </Array>
          </mxGeometry>
        </mxCell>
        <mxCell id="z0r5uAFNtkcqJ_WD6JSB-36" value="" style="endArrow=none;html=1;rounded=0;exitX=0.5;exitY=0;exitDx=0;exitDy=0;" parent="1" edge="1">
          <mxGeometry width="50" height="50" relative="1" as="geometry">
            <mxPoint x="260" y="210" as="sourcePoint" />
            <mxPoint x="380" y="190" as="targetPoint" />
            <Array as="points">
              <mxPoint x="260" y="200" />
              <mxPoint x="380" y="200" />
            </Array>
          </mxGeometry>
        </mxCell>
        <mxCell id="O64tXoXJISWcE4XOfCBd-1" value="Footer" style="rounded=0;whiteSpace=wrap;html=1;" parent="1" vertex="1">
          <mxGeometry x="200" y="210" width="120" height="30" as="geometry" />
        </mxCell>
        <mxCell id="O64tXoXJISWcE4XOfCBd-3" value="HashtagList" style="rounded=0;whiteSpace=wrap;html=1;" parent="1" vertex="1">
          <mxGeometry x="670" y="210" width="120" height="30" as="geometry" />
        </mxCell>
        <mxCell id="O64tXoXJISWcE4XOfCBd-5" value="" style="endArrow=none;html=1;rounded=0;entryX=0.5;entryY=1;entryDx=0;entryDy=0;exitX=0.5;exitY=0;exitDx=0;exitDy=0;" parent="1" source="O64tXoXJISWcE4XOfCBd-3" target="z0r5uAFNtkcqJ_WD6JSB-1" edge="1">
          <mxGeometry width="50" height="50" relative="1" as="geometry">
            <mxPoint x="430" y="280" as="sourcePoint" />
            <mxPoint x="480" y="230" as="targetPoint" />
            <Array as="points">
              <mxPoint x="730" y="200" />
              <mxPoint x="380" y="200" />
            </Array>
          </mxGeometry>
        </mxCell>
        <mxCell id="O64tXoXJISWcE4XOfCBd-6" value="" style="endArrow=none;html=1;rounded=0;entryX=0.5;entryY=1;entryDx=0;entryDy=0;exitX=0.5;exitY=0;exitDx=0;exitDy=0;" parent="1" source="josdxdwWZOVGao6WTSf_-2" edge="1">
          <mxGeometry width="50" height="50" relative="1" as="geometry">
            <mxPoint x="570" y="259.9999999999999" as="sourcePoint" />
            <mxPoint x="500" y="240" as="targetPoint" />
            <Array as="points">
              <mxPoint x="570" y="250" />
              <mxPoint x="500" y="250" />
            </Array>
          </mxGeometry>
        </mxCell>
        <mxCell id="O64tXoXJISWcE4XOfCBd-7" value="" style="endArrow=none;html=1;rounded=0;entryX=0.5;entryY=1;entryDx=0;entryDy=0;exitX=0.5;exitY=0;exitDx=0;exitDy=0;" parent="1" source="O64tXoXJISWcE4XOfCBd-10" edge="1">
          <mxGeometry width="50" height="50" relative="1" as="geometry">
            <mxPoint x="430" y="259.9999999999999" as="sourcePoint" />
            <mxPoint x="500" y="240" as="targetPoint" />
            <Array as="points">
              <mxPoint x="430" y="250" />
              <mxPoint x="500" y="250" />
            </Array>
          </mxGeometry>
        </mxCell>
        <mxCell id="O64tXoXJISWcE4XOfCBd-8" value="PageHeading" style="rounded=0;whiteSpace=wrap;html=1;" parent="1" vertex="1">
          <mxGeometry x="230" y="350" width="120" height="30" as="geometry" />
        </mxCell>
        <mxCell id="O64tXoXJISWcE4XOfCBd-9" value="FeedbackForm" style="rounded=0;whiteSpace=wrap;html=1;" parent="1" vertex="1">
          <mxGeometry x="370" y="350" width="120" height="30" as="geometry" />
        </mxCell>
        <mxCell id="O64tXoXJISWcE4XOfCBd-10" value="Header" style="rounded=0;whiteSpace=wrap;html=1;strokeColor=light-dark(#000000,#16D8FF);" parent="1" vertex="1">
          <mxGeometry x="370" y="280" width="120" height="30" as="geometry" />
        </mxCell>
        <mxCell id="O64tXoXJISWcE4XOfCBd-16" value="Feedback" style="rounded=0;whiteSpace=wrap;html=1;" parent="1" vertex="1">
          <mxGeometry x="510" y="350" width="120" height="30" as="geometry" />
        </mxCell>
        <mxCell id="O64tXoXJISWcE4XOfCBd-17" value="Feedback" style="rounded=0;whiteSpace=wrap;html=1;" parent="1" vertex="1">
          <mxGeometry x="510" y="370" width="120" height="30" as="geometry" />
        </mxCell>
        <mxCell id="O64tXoXJISWcE4XOfCBd-18" value="Feedback" style="rounded=0;whiteSpace=wrap;html=1;" parent="1" vertex="1">
          <mxGeometry x="510" y="390" width="120" height="30" as="geometry" />
        </mxCell>
        <mxCell id="O64tXoXJISWcE4XOfCBd-19" value="" style="endArrow=none;html=1;rounded=0;entryX=0.5;entryY=1;entryDx=0;entryDy=0;exitX=0.5;exitY=0;exitDx=0;exitDy=0;" parent="1" source="O64tXoXJISWcE4XOfCBd-16" target="josdxdwWZOVGao6WTSf_-2" edge="1">
          <mxGeometry width="50" height="50" relative="1" as="geometry">
            <mxPoint x="550" y="360" as="sourcePoint" />
            <mxPoint x="570" y="289.9999999999999" as="targetPoint" />
          </mxGeometry>
        </mxCell>
        <mxCell id="josdxdwWZOVGao6WTSf_-1" value="Container" style="rounded=0;whiteSpace=wrap;html=1;strokeColor=light-dark(#000000,#00FF00);" vertex="1" parent="1">
          <mxGeometry x="440" y="210" width="120" height="30" as="geometry" />
        </mxCell>
        <mxCell id="josdxdwWZOVGao6WTSf_-2" value="FeedbackList" style="rounded=0;whiteSpace=wrap;html=1;" vertex="1" parent="1">
          <mxGeometry x="510" y="280" width="120" height="30" as="geometry" />
        </mxCell>
        <mxCell id="josdxdwWZOVGao6WTSf_-3" value="Logo" style="rounded=0;whiteSpace=wrap;html=1;" vertex="1" parent="1">
          <mxGeometry x="90" y="350" width="120" height="30" as="geometry" />
        </mxCell>
        <mxCell id="josdxdwWZOVGao6WTSf_-4" value="Pattern" style="rounded=0;whiteSpace=wrap;html=1;" vertex="1" parent="1">
          <mxGeometry x="-50" y="350" width="120" height="30" as="geometry" />
        </mxCell>
        <mxCell id="josdxdwWZOVGao6WTSf_-5" value="" style="endArrow=none;html=1;rounded=0;entryX=0.5;entryY=1;entryDx=0;entryDy=0;exitX=0.5;exitY=0;exitDx=0;exitDy=0;" edge="1" parent="1" source="josdxdwWZOVGao6WTSf_-4" target="O64tXoXJISWcE4XOfCBd-10">
          <mxGeometry width="50" height="50" relative="1" as="geometry">
            <mxPoint x="280" y="360" as="sourcePoint" />
            <mxPoint x="330" y="310" as="targetPoint" />
            <Array as="points">
              <mxPoint x="10" y="330" />
              <mxPoint x="430" y="330" />
            </Array>
          </mxGeometry>
        </mxCell>
        <mxCell id="josdxdwWZOVGao6WTSf_-6" value="" style="endArrow=none;html=1;rounded=0;entryX=0.5;entryY=1;entryDx=0;entryDy=0;exitX=0.5;exitY=0;exitDx=0;exitDy=0;" edge="1" parent="1" source="josdxdwWZOVGao6WTSf_-3" target="O64tXoXJISWcE4XOfCBd-10">
          <mxGeometry width="50" height="50" relative="1" as="geometry">
            <mxPoint x="280" y="360" as="sourcePoint" />
            <mxPoint x="330" y="310" as="targetPoint" />
            <Array as="points">
              <mxPoint x="150" y="330" />
              <mxPoint x="430" y="330" />
            </Array>
          </mxGeometry>
        </mxCell>
        <mxCell id="josdxdwWZOVGao6WTSf_-7" value="" style="endArrow=none;html=1;rounded=0;entryX=0.5;entryY=1;entryDx=0;entryDy=0;exitX=0.5;exitY=0;exitDx=0;exitDy=0;" edge="1" parent="1" source="O64tXoXJISWcE4XOfCBd-8" target="O64tXoXJISWcE4XOfCBd-10">
          <mxGeometry width="50" height="50" relative="1" as="geometry">
            <mxPoint x="280" y="360" as="sourcePoint" />
            <mxPoint x="330" y="310" as="targetPoint" />
            <Array as="points">
              <mxPoint x="290" y="330" />
              <mxPoint x="430" y="330" />
            </Array>
          </mxGeometry>
        </mxCell>
        <mxCell id="josdxdwWZOVGao6WTSf_-8" value="" style="endArrow=none;html=1;rounded=0;entryX=0.5;entryY=1;entryDx=0;entryDy=0;exitX=0.5;exitY=0;exitDx=0;exitDy=0;" edge="1" parent="1" source="O64tXoXJISWcE4XOfCBd-9" target="O64tXoXJISWcE4XOfCBd-10">
          <mxGeometry width="50" height="50" relative="1" as="geometry">
            <mxPoint x="280" y="360" as="sourcePoint" />
            <mxPoint x="330" y="310" as="targetPoint" />
          </mxGeometry>
        </mxCell>
        <mxCell id="josdxdwWZOVGao6WTSf_-10" value="&lt;i&gt;body&lt;/i&gt;" style="rounded=0;whiteSpace=wrap;html=1;strokeColor=none;fillColor=light-dark(#FFFFFF,#494949);" vertex="1" parent="1">
          <mxGeometry x="240" y="60" width="120" height="30" as="geometry" />
        </mxCell>
        <mxCell id="josdxdwWZOVGao6WTSf_-11" value="&lt;i&gt;&amp;lt;div id=&quot;root&quot;&lt;/i&gt;" style="rounded=0;whiteSpace=wrap;html=1;strokeColor=none;fillColor=light-dark(#FFFFFF,#494949);" vertex="1" parent="1">
          <mxGeometry x="280" y="110" width="120" height="30" as="geometry" />
        </mxCell>
      </root>
    </mxGraphModel>
  </diagram>
</mxfile>
